HIERARCHY
ROOT hip
{
	OFFSET 0.000000 0.000000 0.000000 
	CHANNELS 6 Xposition Yposition Zposition Zrotation Xrotation Yrotation
	JOINT abdomen
	{
		OFFSET 0.000000 3.402643 0.000000 
		CHANNELS 3 Zrotation Xrotation Yrotation
		JOINT chest
		{
			OFFSET 0.000000 8.438565 -0.680529 
			CHANNELS 3 Zrotation Xrotation Yrotation
			JOINT neck
			{
				OFFSET 0.000000 10.207942 -0.272212 
				CHANNELS 3 Zrotation Xrotation Yrotation
				JOINT head
				{
					OFFSET 0.000000 3.130431 0.000000 
					CHANNELS 3 Zrotation Xrotation Yrotation
					End Site
					{
						OFFSET 0.000000 3.130435 0.000000 
					}
				}
			}
			JOINT lCollar
			{
				OFFSET 3.470700 6.669187 -0.816635 
				CHANNELS 3 Zrotation Xrotation Yrotation
				JOINT lShldr
				{
					OFFSET 3.198488 0.000000 0.000000 
					CHANNELS 3 Zrotation Xrotation Yrotation
					JOINT lForeArm
					{
						OFFSET 10.139888 0.000000 0.000000 
						CHANNELS 3 Zrotation Xrotation Yrotation
						JOINT lHand
						{
							OFFSET 8.370511 0.000000 0.000000 
							CHANNELS 3 Zrotation Xrotation Yrotation
							End Site
							{
								OFFSET 4.083176 0.000000 0.000000 
							}
						}
					}
				}
			}
			JOINT rCollar
			{
				OFFSET -3.470700 6.669187 -0.816635 
				CHANNELS 3 Zrotation Xrotation Yrotation
				JOINT rShldr
				{
					OFFSET -3.198488 0.000000 0.000000 
					CHANNELS 3 Zrotation Xrotation Yrotation
					JOINT rForeArm
					{
						OFFSET -10.139888 0.000000 0.000000 
						CHANNELS 3 Zrotation Xrotation Yrotation
						JOINT rHand
						{
							OFFSET -8.370511 0.000000 0.000000 
							CHANNELS 3 Zrotation Xrotation Yrotation
							End Site
							{
								OFFSET -4.083176 0.000000 0.000000 
							}
						}
					}
				}
			}
		}
	}
	JOINT lThigh
	{
		OFFSET 5.308129 -1.633274 1.361059 
		CHANNELS 3 Zrotation Xrotation Yrotation
		JOINT lShin
		{
			OFFSET -2.041588 -20.007561 0.000000 
			CHANNELS 3 Zrotation Xrotation Yrotation
			JOINT lFoot
			{
				OFFSET 0.000000 -19.190928 -1.224953 
				CHANNELS 3 Zrotation Xrotation Yrotation
				End Site
				{
					OFFSET 0.000000 -2.449906 4.627600 
				}
			}
		}
	}
	JOINT rThigh
	{
		OFFSET -5.308129 -1.633274 1.361059 
		CHANNELS 3 Zrotation Xrotation Yrotation
		JOINT rShin
		{
			OFFSET 2.041588 -20.007561 0.000000 
			CHANNELS 3 Zrotation Xrotation Yrotation
			JOINT rFoot
			{
				OFFSET 0.000000 -19.190928 -1.224953 
				CHANNELS 3 Zrotation Xrotation Yrotation
				End Site
				{
					OFFSET 0.000000 -2.449906 4.627600 
				}
			}
		}
	}
}
MOTION
Frames: 15
Frame Time: 0.016667
-11.680900 46.083477 90.143501 -6.572270 0.507813 56.024700 4.629180 12.269200 -3.730120 -1.036950 -21.057699 -5.128310 12.104100 31.756201 -15.613900 5.875210 20.978100 -6.302060 -1.998780 -0.069785 1.998780 -74.735100 25.061600 -23.176800 -1.661380 -1.402060 -69.505096 -0.087496 7.959170 0.100594 1.998780 -0.069785 -1.998780 63.050598 4.512560 -0.427319 0.533774 1.227430 53.063999 0.079825 31.382999 -0.042489 12.767100 -24.762300 9.321930 2.501900 58.085098 1.729990 3.675030 -36.496899 10.889500 5.239030 -32.920300 -10.992000 -1.934590 46.189301 -2.221020 -0.280751 -29.173201 3.551540 
-12.170100 46.097080 92.309700 -6.689460 -0.537110 58.749599 4.860780 12.399300 -4.084690 -1.081900 -20.951000 -5.731560 12.687600 31.880501 -16.200001 5.945690 21.055901 -6.473590 -1.998780 -0.069785 1.998780 -75.156197 25.334000 -22.583401 -1.648760 -1.426790 -68.714203 -0.087750 8.164240 0.099625 1.998780 -0.069785 -1.998780 63.807201 4.886550 -2.055470 0.548144 1.240130 54.137699 0.080183 31.118999 -0.043215 11.740800 -24.443199 6.652390 2.606890 55.874001 1.591470 6.961700 -39.358200 15.733400 5.643570 -32.472801 -11.539100 -1.946970 46.081100 -2.212770 -1.235870 -30.616899 1.910030 
-12.664300 46.039978 94.450500 -6.738280 -1.679680 61.493900 4.979530 12.395800 -4.420330 -1.153460 -20.861000 -6.355620 13.310600 32.005299 -16.784000 6.046250 21.143299 -6.646470 -1.998780 -0.069785 1.998780 -75.526703 25.454500 -21.992201 -1.636450 -1.450140 -67.962402 -0.087599 8.017760 0.100609 1.998780 -0.069785 -1.998780 64.695198 5.109420 -3.713780 0.562655 1.253460 55.240700 0.080512 30.875000 -0.043884 11.002600 -24.170200 2.999270 2.749540 54.699402 1.422040 8.016750 -41.776402 16.960600 5.982230 -32.119701 -12.103400 -1.920450 46.209702 -2.235420 -1.928760 -32.115101 0.864169 
-13.181000 45.929180 96.576202 -6.738280 -2.792960 64.149300 5.005180 12.268000 -4.693560 -1.261600 -20.790800 -6.917220 14.110400 32.048801 -17.453199 6.226900 21.230200 -6.865480 -1.998780 -0.069785 1.998780 -75.762299 25.485600 -21.482401 -1.623830 -1.473320 -67.210602 -0.088078 7.715030 0.100571 1.998780 -0.069785 -1.998780 65.783401 5.054130 -5.448250 0.577158 1.267300 56.363300 0.080733 30.709000 -0.044336 10.672800 -24.233000 -0.601201 2.825510 54.323101 1.353280 7.105420 -43.230900 15.540400 6.251670 -31.954100 -12.648300 -1.899670 46.543900 -2.261880 -2.362390 -33.646801 0.319971 
-13.726900 45.822777 98.709900 -6.757810 -3.740240 66.542198 5.070630 12.148800 -4.902680 -1.330710 -20.725901 -7.311510 15.089900 31.936501 -18.255600 6.497530 21.297100 -7.158740 -1.998780 -0.069785 1.998780 -75.890297 25.460199 -21.214600 -1.609380 -1.499020 -66.370903 -0.087953 7.588070 0.101560 1.998780 -0.069785 -1.998780 67.043999 4.546490 -7.264990 0.590895 1.280930 57.446701 0.080772 30.680000 -0.044416 10.762200 -24.778099 -3.088830 2.839190 54.498501 1.332310 6.124930 -43.274502 14.268300 6.496990 -32.012299 -13.128700 -1.866770 46.937801 -2.309360 -2.682020 -34.948700 -0.081982 
-14.297300 45.744980 100.864998 -6.845700 -4.443360 68.564102 5.188210 12.115800 -5.012610 -1.378610 -20.689600 -7.476820 16.164400 31.655899 -19.153000 6.787940 21.324600 -7.492520 -1.998780 -0.069785 1.998780 -75.859901 25.420900 -21.163601 -1.592810 -1.527450 -65.433502 -0.088113 7.734570 0.100576 1.998780 -0.069785 -1.998780 68.445801 3.575680 -9.122900 0.603050 1.293430 58.422901 0.080539 30.856001 -0.043937 11.149500 -25.918301 -4.231310 2.787890 55.158600 1.394250 5.722480 -42.322498 13.900800 6.744470 -32.249599 -13.578200 -1.844790 47.223202 -2.339860 -3.021170 -35.883801 -0.516669 
-14.876900 45.689278 103.028000 -7.001960 -4.882810 70.106499 5.319230 12.189800 -5.029130 -1.421670 -20.632799 -7.432310 17.170700 31.230200 -20.069700 7.057780 21.274099 -7.853850 -1.998780 -0.069785 1.998780 -75.589302 25.360100 -21.262100 -1.575050 -1.556770 -64.457199 -0.087409 7.910350 0.100583 1.998780 -0.069785 -1.998780 69.945198 2.285580 -10.927800 0.612143 1.303060 59.164700 0.080011 31.246000 -0.042866 11.720000 -27.267099 -4.351960 2.741590 56.151299 1.447670 5.329320 -41.000900 13.555600 6.939820 -32.641300 -13.864800 -1.808880 47.469898 -2.378910 -3.358000 -36.500099 -0.983161 
-15.455500 45.630680 105.174004 -7.119140 -5.117190 71.132797 5.343950 12.335600 -4.920020 -1.516030 -20.554600 -7.198860 18.031799 30.709900 -20.901600 7.267100 21.165300 -8.190810 -1.998780 -0.069785 1.998780 -75.116096 25.200701 -21.386299 -1.557360 -1.584920 -63.509998 -0.087150 7.763850 0.100547 1.998780 -0.069785 -1.998780 71.480499 0.847903 -12.537400 0.616644 1.307930 59.535702 0.079284 31.774000 -0.041407 12.402700 -28.615801 -3.778430 2.668720 57.165298 1.543180 4.425480 -39.361801 12.411700 7.016730 -33.158401 -14.000500 -1.787390 47.834202 -2.423520 -3.760380 -36.868801 -1.576890 
-16.030800 45.541580 107.285004 -7.089850 -5.195310 71.689301 5.220540 12.495800 -4.719650 -1.690550 -20.431400 -6.859180 18.761700 30.200001 -21.616899 7.446040 21.017599 -8.487400 -1.998780 -0.069785 1.998780 -74.461601 24.854601 -21.455000 -1.539950 -1.611630 -62.601799 -0.088157 7.099780 0.102488 1.998780 -0.069785 -1.998780 72.977798 -0.534663 -13.890600 0.616054 1.307290 59.486900 0.078536 32.300999 -0.039932 13.124100 -29.586399 -2.702910 2.571620 58.179298 1.643940 3.160120 -37.909698 10.628200 6.907030 -33.729801 -14.051400 -1.727280 48.483700 -2.497210 -4.164330 -36.950401 -2.229610 
-16.605499 45.411880 109.348999 -6.884770 -5.185540 71.854500 5.036770 12.638300 -4.467980 -1.891650 -20.270901 -6.456300 19.346701 29.785700 -22.178400 7.615220 20.909000 -8.733340 -1.998780 -0.069785 1.998780 -73.819702 24.267799 -21.448999 -1.520960 -1.639760 -61.635101 -0.087487 6.084160 0.104318 1.998780 -0.069785 -1.998780 74.245598 -1.752050 -14.910100 0.610358 1.301150 59.018299 0.077896 32.740002 -0.038689 13.795800 -30.278900 -1.287460 2.511020 59.231499 1.731700 2.031710 -36.723099 8.872750 6.627680 -34.278599 -14.061400 -1.696480 49.375999 -2.532230 -4.517550 -36.753601 -2.805190 
-17.180300 45.258080 111.375000 -6.523450 -5.136720 71.727997 4.841860 12.751600 -4.213390 -2.105960 -20.079800 -6.063200 19.769501 29.593800 -22.584200 7.754920 20.868999 -8.929600 -1.998780 -0.069785 1.998780 -73.169800 23.517500 -21.417700 -1.498510 -1.671740 -60.521801 -0.087446 4.912290 0.106183 1.998780 -0.069785 -1.998780 75.218803 -2.687970 -15.660700 0.600514 1.290790 58.217899 0.077374 33.091999 -0.037686 14.408200 -30.704300 0.253098 2.420760 60.303001 1.816440 1.251240 -35.958801 7.583700 6.302140 -34.764999 -13.994700 -1.670120 50.504002 -2.588990 -4.676550 -36.494099 -3.149710 
-17.756399 45.097477 113.365997 -6.093750 -5.087890 71.366203 4.635610 12.825900 -3.984220 -2.302380 -19.906401 -5.703190 19.969400 29.663000 -22.824400 7.815490 20.936800 -9.050450 -1.998780 -0.069785 1.998780 -72.467796 22.693300 -21.389299 -1.471120 -1.709050 -59.203400 -0.087653 3.886910 0.109118 1.998780 -0.069785 -1.998780 75.842300 -3.338530 -16.206301 0.587947 1.277960 57.212502 0.076723 33.521999 -0.036450 14.893900 -30.855801 1.689500 2.342290 61.237598 1.915740 0.797607 -35.652599 6.830340 6.032250 -35.133999 -13.871500 -1.619250 51.436100 -2.641370 -4.840870 -36.052101 -3.508880 
-18.335300 44.936779 115.323997 -5.683600 -5.048830 70.829597 4.429160 12.899900 -3.774500 -2.491860 -19.759501 -5.406770 19.938999 29.953600 -22.898001 7.796470 21.054199 -9.088430 -1.998780 -0.069785 1.998780 -71.657303 21.863300 -21.418200 -1.439480 -1.750020 -57.728802 -0.088367 3.203310 0.110105 1.998780 -0.069785 -1.998780 76.096603 -3.744380 -16.614500 0.574654 1.264870 56.167999 0.075829 34.098000 -0.034774 15.248300 -30.868401 2.913400 2.293210 62.082298 1.976460 0.589197 -35.686501 6.465220 5.862530 -35.511501 -13.653900 -1.599690 52.259998 -2.685330 -5.053150 -35.562302 -3.980000 
-18.917999 44.778080 117.257004 -5.312500 -5.029290 70.126801 4.222520 12.973700 -3.603750 -2.681520 -19.638901 -5.195040 19.749901 30.370800 -22.841200 7.717730 21.211100 -9.073070 -1.998780 -0.069785 1.998780 -70.675499 21.023800 -21.523800 -1.406350 -1.790690 -56.234600 -0.087916 2.881080 0.121076 1.998780 -0.069785 -1.998780 76.015297 -4.028240 -16.952101 0.562528 1.253340 55.230900 0.074635 34.840000 -0.032580 15.521000 -30.849899 3.890380 2.210920 62.859501 2.072570 0.539297 -35.887001 6.383320 5.843360 -35.916000 -13.266300 -1.553750 52.977001 -2.749670 -5.376330 -35.041801 -4.680600 
-19.507299 44.623180 119.168999 -4.960940 -4.990230 69.276604 4.016430 13.076400 -3.481250 -2.910150 -19.525499 -5.067170 19.496000 30.807600 -22.667000 7.628880 21.358200 -8.989730 -1.998780 -0.069785 1.998780 -69.521301 20.119900 -21.644501 -1.375120 -1.827130 -54.867298 -0.088338 2.656450 0.111098 1.998780 -0.069785 -1.998780 75.629501 -4.283540 -17.260700 0.553825 1.245290 54.567200 0.073380 35.591999 -0.030319 15.728300 -30.851299 4.720770 2.154530 63.722900 2.117370 0.641524 -36.209400 6.562750 5.956510 -36.401699 -12.674700 -1.530720 53.741501 -2.780450 -5.791370 -34.553299 -5.566820 
